<?xml version="1.0" encoding="UTF-8"?>
<svg version="1.1" xmlns="http://www.w3.org/2000/svg" width="1024" height="1024">
<path d="M0 0 C337.92 0 675.84 0 1024 0 C1024 337.92 1024 675.84 1024 1024 C686.08 1024 348.16 1024 0 1024 C0 686.08 0 348.16 0 0 Z " fill="#FEFEFE" transform="translate(0,0)"/>
<path d="M0 0 C0.33 80.19 0.66 160.38 1 243 C7.27 239.37 13.54 235.74 20 232 C23.35196385 230.07918515 26.7048032 228.16066507 30.0625 226.25 C36.87759215 222.36542326 43.67721105 218.45521984 50.46630859 214.52539062 C60.25129183 208.86246798 70.06402282 203.25733928 79.9375 197.75 C89.48190282 192.42609688 98.96327321 187.00615645 108.40771484 181.50732422 C122.65968561 173.22029583 136.95036695 165.00392968 151.31542969 156.91455078 C158.57081583 152.82295196 165.78997945 148.67094554 173 144.5 C184.01593913 138.12908127 195.0765796 131.8417196 206.16455078 125.59716797 C220.93986983 117.27444219 235.69013398 108.90913055 250.40722656 100.48388672 C253.8945352 98.48804285 257.38322803 96.49462632 260.87207031 94.50146484 C262.61897519 93.50337259 264.36572096 92.50500179 266.11230469 91.50634766 C270.55901623 88.96406449 275.00795894 86.42582334 279.4609375 83.89453125 C288.02370612 79.02237276 296.54824506 74.10749409 304.97558594 69.00439453 C309.18717845 66.46283636 313.46085428 64.08170422 317.79296875 61.75390625 C324.88446044 57.87561177 331.87039412 53.80588807 338.88232422 49.78613281 C343.98458356 46.86302167 349.09079778 43.94683362 354.19671631 41.03012085 C357.19765777 39.31584129 360.19846262 37.60132269 363.19921875 35.88671875 C363.78197571 35.55374283 364.36473267 35.22076691 364.96514893 34.87770081 C368.52574476 32.84304324 372.08545625 30.80684774 375.64453125 28.76953125 C385.74465344 22.989573 395.86280379 17.24300994 406.00195312 11.53173828 C412.04532216 8.12268509 418.04588102 4.65700896 423.98828125 1.07421875 C426 0 426 0 428 0 C428 80.52 428 161.04 428 244 C420.41 248.29 412.82 252.58 405 257 C400.28915406 259.68330171 395.57982087 262.36872017 390.875 265.0625 C389.69583483 265.73703869 388.51663476 266.41151637 387.33740234 267.0859375 C384.99496894 268.42568536 382.65270888 269.76573459 380.31054688 271.10595703 C376.30202265 273.39932952 372.29239214 275.69076109 368.2824707 277.98168945 C366.52828219 278.98392173 364.77421075 279.98635895 363.02026367 280.98901367 C359.4958098 283.00372695 355.97103663 285.01780438 352.44140625 287.0234375 C347.17182414 290.02197522 341.91816059 293.04350461 336.6875 296.109375 C323.23796548 303.99216013 309.69838975 311.69010241 296.08154297 319.27978516 C283.86209064 326.1010703 271.67402648 332.96845497 259.6418457 340.11547852 C252.19614558 344.51557281 244.63736402 348.7137614 237.07861328 352.91577148 C234.04795195 354.60269501 231.02311262 356.2995896 228 358 C226.86771973 358.63115723 225.73543945 359.26231445 224.56884766 359.91259766 C223.46976074 360.53569824 222.37067383 361.15879883 221.23828125 361.80078125 C220.23450439 362.36579346 219.23072754 362.93080566 218.1965332 363.51293945 C217.47167725 364.00366943 216.74682129 364.49439941 216 365 C216 365.66 216 366.32 216 367 C216.671521 367.36424072 217.34304199 367.72848145 218.03491211 368.10375977 C224.5757504 371.66025875 231.08310383 375.2703638 237.5625 378.9375 C238.54355713 379.49252197 239.52461426 380.04754395 240.53540039 380.61938477 C254.42413398 388.49152816 268.26332081 396.45349008 282.03125 404.53515625 C293.58052691 411.31265041 305.20461319 417.92203324 316.92895508 424.39233398 C325.38778136 429.07241981 333.7484626 433.90191989 342.08203125 438.80078125 C349.17161269 442.95900339 356.31808698 447.00361292 363.5 451 C372.76042593 456.15427936 381.93884376 461.43239543 391.0793457 466.79614258 C399.20673859 471.55815539 407.39214074 476.21179711 415.60400391 480.82641602 C416.5016748 481.33100342 417.3993457 481.83559082 418.32421875 482.35546875 C419.10885498 482.79528076 419.89349121 483.23509277 420.7019043 483.68823242 C421.46027588 484.12111572 422.21864746 484.55399902 423 485 C423.85999698 485.3235613 424.71999395 485.64712259 425.60605145 485.98048878 C428 488 428 488 428.45811427 489.87585008 C428.63506681 492.47051622 428.64153751 495.02337196 428.60127258 497.62394714 C428.60554471 498.62289719 428.60981683 499.62184724 428.61421841 500.65106851 C428.62248514 504.01416629 428.59490157 507.3760299 428.56762695 510.73901367 C428.56621729 513.1433662 428.56700687 515.54772088 428.56983948 517.95207214 C428.57097979 523.13650232 428.5567557 528.32065098 428.52865028 533.50499535 C428.48804101 541.00068331 428.47499576 548.49621909 428.46871033 555.99200515 C428.45776305 568.15287802 428.42447724 580.31358335 428.37719727 592.47436523 C428.3313128 604.2884843 428.29591549 616.10255788 428.2746582 627.91674805 C428.27334459 628.6447868 428.27203097 629.37282555 428.27067754 630.12292608 C428.26415243 633.77522727 428.25783387 637.42752879 428.25161803 641.07983053 C428.19977155 671.38667365 428.11132335 701.69331359 428 732 C425.0244037 730.82510777 422.17477536 729.63807382 419.3828125 728.07421875 C418.70589355 727.6968457 418.02897461 727.31947266 417.33154297 726.93066406 C416.60338379 726.52041992 415.87522461 726.11017578 415.125 725.6875 C414.34398926 725.25018555 413.56297852 724.81287109 412.75830078 724.36230469 C410.17036898 722.91144067 407.58520583 721.45571484 405 720 C403.18231497 718.98042721 401.3646062 717.96089673 399.546875 716.94140625 C388.63218857 710.80675675 377.78793917 704.56130008 366.98413086 698.23364258 C356.38890035 692.03798813 345.69864556 686.01470647 335 680 C323.8222915 673.71311376 312.6539616 667.42427339 301.62695312 660.87597656 C294.28090318 656.53576068 286.82047376 652.40181162 279.36865234 648.24682617 C271.41861993 643.80891194 263.52636231 639.28077591 255.65625 634.703125 C242.36624305 626.97506493 228.97909461 619.41505047 215.59130859 611.8581543 C206.57344827 606.76536671 197.58068779 601.62928956 188.59277344 596.48388672 C185.10634966 594.48854927 181.61853258 592.49565488 178.13061523 590.50292969 C175.49707261 588.99832751 172.86377085 587.49330435 170.23046875 585.98828125 C166.79641105 584.02587139 163.36146856 582.06502405 159.92578125 580.10546875 C150.30942892 574.61870818 140.71024133 569.10344895 131.125 563.5625 C122.00754619 558.29304876 112.85988528 553.08136422 103.68408203 547.91430664 C96.42888923 543.82273711 89.2098267 539.67091694 82 535.5 C73.75227854 530.72918133 65.48706203 525.99258758 57.1875 521.3125 C38.36549439 510.69788581 19.66702131 499.88909577 1 489 C0.67 569.19 0.34 649.38 0 732 C-8.08500975 727.95749513 -15.87907143 723.85042583 -23.625 719.25 C-30.70502006 715.08065485 -37.79664989 710.9527648 -45 707 C-51.92202259 703.19615454 -58.75060736 699.24748667 -65.5625 695.25 C-76.92913515 688.58417352 -88.40898515 682.13530062 -99.91845703 675.72021484 C-112.30813611 668.80390374 -124.6618219 661.83410916 -136.86572266 654.59448242 C-142.56546752 651.2253333 -148.34339453 648.00979119 -154.14111328 644.81298828 C-160.31705731 641.39986202 -166.42512748 637.87844772 -172.52270508 634.32763672 C-179.94574559 630.01249709 -187.42080785 625.79160913 -194.90893555 621.59057617 C-196.27078979 620.8245105 -196.27078979 620.8245105 -197.66015625 620.04296875 C-198.84557007 619.37817505 -198.84557007 619.37817505 -200.05493164 618.69995117 C-201.51274048 617.85847534 -201.51274048 617.85847534 -203 617 C-203.80150586 616.73549726 -204.60301173 616.47099452 -205.42880565 616.19847655 C-208.7058002 614.84843576 -210.6139502 613.64760188 -213 611 C-214.5992135 604.62704331 -214.38089538 598.28086859 -214.31694031 591.74346924 C-214.33347229 589.72422675 -214.35434118 587.70501588 -214.3791793 585.68585849 C-214.43461635 580.13148911 -214.42738722 574.57868573 -214.40986001 569.02413177 C-214.40165866 563.03605805 -214.45073208 557.04841415 -214.49220276 551.06051636 C-214.56374283 539.32695438 -214.58010798 527.59381358 -214.57525148 515.86009458 C-214.57159235 506.32364211 -214.5851001 496.78735604 -214.61072731 487.25093842 C-214.61432625 485.88101234 -214.61791552 484.51108624 -214.62149516 483.14116012 C-214.62327367 482.46113469 -214.62505219 481.78110926 -214.6268846 481.08047701 C-214.62866529 480.39920763 -214.63044599 479.71793825 -214.63228065 479.01602435 C-214.63407367 478.3336157 -214.6358667 477.65120704 -214.63771405 476.94811934 C-214.6876237 457.75245861 -214.71640983 438.55685871 -214.70212078 419.36113358 C-214.70158934 418.63738033 -214.7010579 417.91362708 -214.70051035 417.16794192 C-214.69776056 413.49965724 -214.69482708 409.83137272 -214.69183161 406.16308823 C-214.69123857 405.43455381 -214.69064552 404.70601938 -214.69003451 403.95540816 C-214.68883279 402.48213364 -214.68762001 401.00885913 -214.68639618 399.53558462 C-214.6678762 376.6150452 -214.72167701 353.69566136 -214.83178711 330.77539062 C-214.95539761 305.02445734 -215.02197988 279.2742598 -215.00620776 253.52301097 C-215.00472321 250.77678226 -215.00344374 248.03055352 -215.00229836 245.28432465 C-215.00197954 244.60813414 -215.00166073 243.93194364 -215.00133226 243.23526252 C-214.99771966 233.02980399 -215.03892622 222.82515025 -215.10306358 212.61991119 C-215.17599316 201.01110906 -215.18820885 189.40367709 -215.12465539 177.79473689 C-215.09388113 171.87037413 -215.0905195 165.94935386 -215.16107559 160.02525711 C-215.22498324 154.59990137 -215.21027276 149.18061899 -215.13315401 143.75548729 C-215.11903466 141.79452183 -215.1335779 139.83309479 -215.1798019 137.87262335 C-215.49261979 123.63789188 -215.49261979 123.63789188 -211.36939873 119.27436584 C-207.33368937 116.14946737 -202.93142923 114.00429619 -198.25655565 112.00562629 C-194.5137024 110.33763657 -190.99226299 108.28112253 -187.4375 106.25 C-186.20290039 105.569375 -186.20290039 105.569375 -184.94335938 104.875 C-178.71447448 101.43507891 -172.57392781 97.8516653 -166.4375 94.25 C-157.07371456 88.75747741 -147.64082087 83.40347376 -138.15942383 78.11694336 C-124.12732048 70.29128384 -110.2001444 62.28661991 -96.30761719 54.21630859 C-89.04549625 50.00692908 -81.73187055 45.89055516 -74.41772461 41.77246094 C-68.63811896 38.51144846 -62.89451896 35.19879456 -57.1875 31.8125 C-51.65410675 28.52940137 -46.07445496 25.35182975 -40.4375 22.25 C-28.25855655 15.54614407 -16.08852659 8.69360981 -4.3059082 1.31225586 C-2 0 -2 0 0 0 Z " fill="#E1CB95" transform="translate(405,146)"/>
<path d="M0 0 C0.33 80.19 0.66 160.38 1 243 C1.99 243 2.98 243 4 243 C3.67 243.66 3.34 244.32 3 245 C2.01 245 1.02 245 0 245 C0 324.86 0 404.72 0 487 C5.94 483.535 5.94 483.535 12 480 C14.66573851 478.54019082 17.33169285 477.08073522 20.00390625 475.6328125 C31.30187053 469.47564292 42.4163819 463.01422765 53.51586914 456.50805664 C60.83755301 452.22931372 68.21373779 448.05883151 75.625 443.9375 C84.66386405 438.91104761 93.61121541 433.75346238 102.48291016 428.43725586 C108.57264468 424.79751669 114.75922507 421.37303588 121 418 C131.12905425 412.43687976 141.10278538 406.62040353 151.02270508 400.69311523 C156.36228616 397.51354137 161.75450691 394.4673658 167.22094727 391.51147461 C171.95005965 388.93939917 176.62929753 386.27947733 181.3125 383.625 C182.30926758 383.06063232 183.30603516 382.49626465 184.33300781 381.91479492 C187.22272849 380.27780139 190.1115571 378.63924688 193 377 C193.78101074 376.5570459 194.56202148 376.1140918 195.36669922 375.65771484 C197.32870155 374.54421891 199.28967916 373.42895294 201.25 372.3125 C202.30703125 371.71050781 203.3640625 371.10851562 204.453125 370.48828125 C206.33893707 369.38629598 208.18264926 368.21156716 210 367 C210.99 367 211.98 367 213 367 C213 446.86 213 526.72 213 609 C208.93193 607.64397667 206.10207844 606.6635023 202.55859375 604.6015625 C201.73875 604.12847656 200.91890625 603.65539062 200.07421875 603.16796875 C198.76904297 602.40419922 198.76904297 602.40419922 197.4375 601.625 C195.55086424 600.53371069 193.66414311 599.44256893 191.77734375 598.3515625 C190.81683105 597.7937207 189.85631836 597.23587891 188.86669922 596.66113281 C184.42317487 594.0862955 179.9612546 591.54394833 175.5 589 C173.74339942 587.99625152 171.98688917 586.99234495 170.23046875 585.98828125 C166.79641105 584.02587139 163.36146856 582.06502405 159.92578125 580.10546875 C150.30942892 574.61870818 140.71024133 569.10344895 131.125 563.5625 C122.00754619 558.29304876 112.85988528 553.08136422 103.68408203 547.91430664 C96.42888923 543.82273711 89.2098267 539.67091694 82 535.5 C73.75227854 530.72918133 65.48706203 525.99258758 57.1875 521.3125 C38.36549439 510.69788581 19.66702131 499.88909577 1 489 C0.67 569.19 0.34 649.38 0 732 C-8.08500975 727.95749513 -15.87907143 723.85042583 -23.625 719.25 C-30.70502006 715.08065485 -37.79664989 710.9527648 -45 707 C-51.92202259 703.19615454 -58.75060736 699.24748667 -65.5625 695.25 C-76.92913515 688.58417352 -88.40898515 682.13530062 -99.91845703 675.72021484 C-112.30813611 668.80390374 -124.6618219 661.83410916 -136.86572266 654.59448242 C-142.56546752 651.2253333 -148.34339453 648.00979119 -154.14111328 644.81298828 C-160.31705731 641.39986202 -166.42512748 637.87844772 -172.52270508 634.32763672 C-179.94574559 630.01249709 -187.42080785 625.79160913 -194.90893555 621.59057617 C-196.27078979 620.8245105 -196.27078979 620.8245105 -197.66015625 620.04296875 C-198.84557007 619.37817505 -198.84557007 619.37817505 -200.05493164 618.69995117 C-201.51274048 617.85847534 -201.51274048 617.85847534 -203 617 C-203.80150586 616.73549726 -204.60301173 616.47099452 -205.42880565 616.19847655 C-208.7058002 614.84843576 -210.6139502 613.64760188 -213 611 C-214.5992135 604.62704331 -214.38089538 598.28086859 -214.31694031 591.74346924 C-214.33347229 589.72422675 -214.35434118 587.70501588 -214.3791793 585.68585849 C-214.43461635 580.13148911 -214.42738722 574.57868573 -214.40986001 569.02413177 C-214.40165866 563.03605805 -214.45073208 557.04841415 -214.49220276 551.06051636 C-214.56374283 539.32695438 -214.58010798 527.59381358 -214.57525148 515.86009458 C-214.57159235 506.32364211 -214.5851001 496.78735604 -214.61072731 487.25093842 C-214.61432625 485.88101234 -214.61791552 484.51108624 -214.62149516 483.14116012 C-214.62327367 482.46113469 -214.62505219 481.78110926 -214.6268846 481.08047701 C-214.62866529 480.39920763 -214.63044599 479.71793825 -214.63228065 479.01602435 C-214.63407367 478.3336157 -214.6358667 477.65120704 -214.63771405 476.94811934 C-214.6876237 457.75245861 -214.71640983 438.55685871 -214.70212078 419.36113358 C-214.70158934 418.63738033 -214.7010579 417.91362708 -214.70051035 417.16794192 C-214.69776056 413.49965724 -214.69482708 409.83137272 -214.69183161 406.16308823 C-214.69123857 405.43455381 -214.69064552 404.70601938 -214.69003451 403.95540816 C-214.68883279 402.48213364 -214.68762001 401.00885913 -214.68639618 399.53558462 C-214.6678762 376.6150452 -214.72167701 353.69566136 -214.83178711 330.77539062 C-214.95539761 305.02445734 -215.02197988 279.2742598 -215.00620776 253.52301097 C-215.00472321 250.77678226 -215.00344374 248.03055352 -215.00229836 245.28432465 C-215.00197954 244.60813414 -215.00166073 243.93194364 -215.00133226 243.23526252 C-214.99771966 233.02980399 -215.03892622 222.82515025 -215.10306358 212.61991119 C-215.17599316 201.01110906 -215.18820885 189.40367709 -215.12465539 177.79473689 C-215.09388113 171.87037413 -215.0905195 165.94935386 -215.16107559 160.02525711 C-215.22498324 154.59990137 -215.21027276 149.18061899 -215.13315401 143.75548729 C-215.11903466 141.79452183 -215.1335779 139.83309479 -215.1798019 137.87262335 C-215.49261979 123.63789188 -215.49261979 123.63789188 -211.36939873 119.27436584 C-207.33368937 116.14946737 -202.93142923 114.00429619 -198.25655565 112.00562629 C-194.5137024 110.33763657 -190.99226299 108.28112253 -187.4375 106.25 C-186.20290039 105.569375 -186.20290039 105.569375 -184.94335938 104.875 C-178.71447448 101.43507891 -172.57392781 97.8516653 -166.4375 94.25 C-157.07371456 88.75747741 -147.64082087 83.40347376 -138.15942383 78.11694336 C-124.12732048 70.29128384 -110.2001444 62.28661991 -96.30761719 54.21630859 C-89.04549625 50.00692908 -81.73187055 45.89055516 -74.41772461 41.77246094 C-68.63811896 38.51144846 -62.89451896 35.19879456 -57.1875 31.8125 C-51.65410675 28.52940137 -46.07445496 25.35182975 -40.4375 22.25 C-28.25855655 15.54614407 -16.08852659 8.69360981 -4.3059082 1.31225586 C-2 0 -2 0 0 0 Z " fill="#E1CB94" transform="translate(405,146)"/>
<path d="M0 0 C0.99 0 1.98 0 3 0 C3 80.52 3 161.04 3 244 C-0.96 245.98 -0.96 245.98 -5 248 C-8.61272179 249.94802346 -12.17953769 251.97566999 -15.75 254 C-16.75063477 254.565979 -17.75126953 255.13195801 -18.78222656 255.71508789 C-26.35063091 260.01607802 -33.8256288 264.45838883 -41.2734375 268.96411133 C-46.21171307 271.94615456 -51.18383842 274.81702671 -56.2734375 277.53515625 C-66.87236046 283.22942002 -77.2793508 289.29267728 -87.71923828 295.27148438 C-94.38075994 299.08356208 -101.06274572 302.85829036 -107.75 306.625 C-115.17008482 310.80636481 -122.53985797 315.05941699 -129.86474609 319.4050293 C-135.56350782 322.77334844 -141.3403573 325.98818118 -147.13671875 329.18481445 C-153.36238559 332.62591274 -159.52294597 336.17145177 -165.67211914 339.74707031 C-172.58643279 343.76670807 -179.52431314 347.74396537 -186.47314453 351.70361328 C-190.44577715 353.96739397 -194.41494762 356.23592016 -198.3671875 358.53515625 C-199.34594849 359.10230347 -199.34594849 359.10230347 -200.34448242 359.6809082 C-202.05817309 360.67498045 -203.76942279 361.67325743 -205.48046875 362.671875 C-208 364 -208 364 -210 364 C-210 284.14 -210 204.28 -210 122 C-209.01 122 -208.02 122 -207 122 C-206.93748047 121.40396973 -206.87496094 120.80793945 -206.81054688 120.19384766 C-205.6511034 117.05566722 -203.94821343 116.4661292 -201.03125 114.8984375 C-199.99403809 114.33116943 -198.95682617 113.76390137 -197.88818359 113.17944336 C-196.77008301 112.58397705 -195.65198242 111.98851074 -194.5 111.375 C-192.18931376 110.11472937 -189.87941867 108.8530071 -187.5703125 107.58984375 C-186.43883789 106.9747998 -185.30736328 106.35975586 -184.14160156 105.72607422 C-180.16941525 103.54365603 -176.26439977 101.26329032 -172.375 98.9375 C-165.07172686 94.59698448 -157.68727489 90.40953 -150.28515625 86.24023438 C-142.46561688 81.83406723 -134.66603513 77.39378706 -126.875 72.9375 C-125.98352264 72.42766571 -125.98352264 72.42766571 -125.07403564 71.90753174 C-122.14242054 70.23085572 -119.21103886 68.55377266 -116.27978516 66.87646484 C-111.54179167 64.16571466 -106.80217533 61.45780807 -102.0625 58.75 C-100.37629212 57.78647576 -98.69009409 56.82293429 -97.00390625 55.859375 C-86.77734375 50.015625 -86.77734375 50.015625 -84.14160156 48.50952148 C-82.38179586 47.50389499 -80.62203018 46.49819848 -78.86230469 45.49243164 C-74.55106596 43.02846672 -70.23918906 40.56563476 -65.92578125 38.10546875 C-55.21380923 31.9935852 -44.52558789 25.84191283 -33.84912109 19.66821289 C-25.24739069 14.70172996 -16.60876341 9.80288704 -7.94384766 4.94750977 C-7.04327637 4.44147217 -6.14270508 3.93543457 -5.21484375 3.4140625 C-4.02556274 2.74818115 -4.02556274 2.74818115 -2.81225586 2.06884766 C-1.04493381 1.12821573 -1.04493381 1.12821573 0 0 Z " fill="#E09E9C" transform="translate(615,269)"/>
<path d="M0 0 C0 80.19 0 160.38 0 243 C-3.22328518 241.71068593 -6.02649336 240.53150798 -9.01953125 238.890625 C-9.78177002 238.47312988 -10.54400879 238.05563477 -11.3293457 237.62548828 C-12.14878662 237.17157715 -12.96822754 236.71766602 -13.8125 236.25 C-14.68414795 235.76901855 -15.5557959 235.28803711 -16.45385742 234.79248047 C-24.32454124 230.42381659 -32.09614782 225.89156897 -39.86035156 221.3371582 C-50.50351915 215.0997867 -61.24648485 209.04448354 -72 203 C-84.68764304 195.86835528 -97.32358601 188.66385349 -109.87866211 181.30102539 C-118.074236 176.50851298 -126.34851162 171.86696049 -134.64404297 167.25024414 C-141.81323616 163.25055963 -148.92075397 159.15658426 -156 155 C-164.21884164 150.17464867 -172.48780239 145.45287054 -180.8125 140.8125 C-188.55959113 136.4894975 -196.30196604 132.15994012 -204 127.75 C-204.80155518 127.2960083 -205.60311035 126.8420166 -206.42895508 126.37426758 C-211.88383534 123.23232932 -211.88383534 123.23232932 -213 121 C-204.54152393 115.96774208 -196.06221197 110.99285694 -187.4375 106.25 C-180.37091786 102.36055071 -173.39392503 98.33294783 -166.4375 94.25 C-157.07371456 88.75747741 -147.64082087 83.40347376 -138.15942383 78.11694336 C-124.12732048 70.29128384 -110.2001444 62.28661991 -96.30761719 54.21630859 C-89.04549625 50.00692908 -81.73187055 45.89055516 -74.41772461 41.77246094 C-68.63811896 38.51144846 -62.89451896 35.19879456 -57.1875 31.8125 C-51.65410675 28.52940137 -46.07445496 25.35182975 -40.4375 22.25 C-28.25855655 15.54614407 -16.08852659 8.69360981 -4.3059082 1.31225586 C-2 0 -2 0 0 0 Z " fill="#3A5582" transform="translate(405,146)"/>
<path d="M0 0 C0 80.19 0 160.38 0 243 C-8.08500975 238.95749513 -15.87907143 234.85042583 -23.625 230.25 C-30.70502006 226.08065485 -37.79664989 221.9527648 -45 218 C-51.92202259 214.19615454 -58.75060736 210.24748667 -65.5625 206.25 C-76.92913515 199.58417352 -88.40898515 193.13530062 -99.91845703 186.72021484 C-112.30813611 179.80390374 -124.6618219 172.83410916 -136.86572266 165.59448242 C-142.56546752 162.2253333 -148.34339453 159.00979119 -154.14111328 155.81298828 C-160.31705731 152.39986202 -166.42512748 148.87844772 -172.52270508 145.32763672 C-179.94574559 141.01249709 -187.42080785 136.79160913 -194.90893555 132.59057617 C-201.00307153 129.16252328 -207.02364361 125.62951367 -213 122 C-210.47194699 119.3190534 -208.1542788 117.31801065 -204.90234375 115.58984375 C-204.11093994 115.16324463 -203.31953613 114.73664551 -202.50415039 114.29711914 C-201.65715576 113.84844482 -200.81016113 113.39977051 -199.9375 112.9375 C-198.12143237 111.95751252 -196.30635055 110.97569629 -194.4921875 109.9921875 C-193.57276367 109.49428711 -192.65333984 108.99638672 -191.70605469 108.48339844 C-187.61910384 106.24302372 -183.58825309 103.91060797 -179.5625 101.5625 C-177.9857262 100.64444689 -176.40890276 99.72647902 -174.83203125 98.80859375 C-173.64601318 98.11805908 -173.64601318 98.11805908 -172.43603516 97.41357422 C-168.2177862 94.96582302 -163.98462624 92.54427792 -159.75 90.125 C-158.88415283 89.6302417 -158.01830566 89.1354834 -157.1262207 88.62573242 C-151.49368571 85.41179813 -145.84882645 82.22024168 -140.19897461 79.03686523 C-127.90570764 72.10911722 -115.69520467 65.06012395 -103.625 57.75 C-99.50346352 55.26739665 -95.30281309 52.95907588 -91.0703125 50.671875 C-85.47614766 47.62568855 -79.936589 44.48155223 -74.39013672 41.34960938 C-71.79315622 39.88320405 -69.19538446 38.4182053 -66.59765625 36.953125 C-54.59750319 30.18139046 -42.62099133 23.36946285 -30.66308594 16.5234375 C-27.84165563 14.90941796 -25.01866427 13.29815586 -22.1953125 11.6875 C-20.76566162 10.87164429 -20.76566162 10.87164429 -19.30712891 10.03930664 C-17.4841036 8.99905016 -15.66087316 7.95915307 -13.83740234 6.91967773 C-13.01449707 6.44989502 -12.1915918 5.9801123 -11.34375 5.49609375 C-10.58191406 5.06151855 -9.82007813 4.62694336 -9.03515625 4.17919922 C-7.3496138 3.20257134 -5.68708858 2.18634042 -4.03125 1.16015625 C-2 0 -2 0 0 0 Z " fill="#3A5582" transform="translate(405,635)"/>
<path d="M0 0 C0 79.86 0 159.72 0 242 C-4.06807 240.64397667 -6.89792156 239.6635023 -10.44140625 237.6015625 C-11.26125 237.12847656 -12.08109375 236.65539062 -12.92578125 236.16796875 C-13.79589844 235.65878906 -14.66601562 235.14960937 -15.5625 234.625 C-17.44913576 233.53371069 -19.33585689 232.44256893 -21.22265625 231.3515625 C-22.18316895 230.7937207 -23.14368164 230.23587891 -24.13330078 229.66113281 C-28.57682513 227.0862955 -33.0387454 224.54394833 -37.5 222 C-39.25660058 220.99625152 -41.01311083 219.99234495 -42.76953125 218.98828125 C-46.20358895 217.02587139 -49.63853144 215.06502405 -53.07421875 213.10546875 C-62.69057108 207.61870818 -72.28975867 202.10344895 -81.875 196.5625 C-90.99245381 191.29304876 -100.14011472 186.08136422 -109.31591797 180.91430664 C-116.57111077 176.82273711 -123.7901733 172.67091694 -131 168.5 C-139.24772146 163.72918133 -147.51293797 158.99258758 -155.8125 154.3125 C-166.56504308 148.24863525 -177.29756447 142.15191027 -188 136 C-189.06686035 135.38850098 -190.1337207 134.77700195 -191.23291016 134.14697266 C-194.57533444 132.22880832 -197.91317393 130.3028834 -201.25 128.375 C-202.30501709 127.77051025 -203.36003418 127.16602051 -204.44702148 126.54321289 C-205.41841064 125.97981201 -206.3897998 125.41641113 -207.390625 124.8359375 C-208.25719727 124.33626465 -209.12376953 123.8365918 -210.01660156 123.32177734 C-212 122 -212 122 -213 120 C-206.38873535 116.10016152 -199.74471048 112.28950979 -192.99609375 108.6328125 C-181.69812947 102.47564292 -170.5836181 96.01422765 -159.48413086 89.50805664 C-152.16244699 85.22931372 -144.78626221 81.05883151 -137.375 76.9375 C-128.33613595 71.91104761 -119.38878459 66.75346238 -110.51708984 61.43725586 C-104.42735532 57.79751669 -98.24077493 54.37303588 -92 51 C-81.87094575 45.43687976 -71.89721462 39.62040353 -61.97729492 33.69311523 C-56.63771384 30.51354137 -51.24549309 27.4673658 -45.77905273 24.51147461 C-41.04994035 21.93939917 -36.37070247 19.27947733 -31.6875 16.625 C-30.69073242 16.06063232 -29.69396484 15.49626465 -28.66699219 14.91479492 C-25.77727151 13.27780139 -22.8884429 11.63924688 -20 10 C-19.21898926 9.5570459 -18.43797852 9.1140918 -17.63330078 8.65771484 C-15.67129845 7.54421891 -13.71032084 6.42895294 -11.75 5.3125 C-10.69296875 4.71050781 -9.6359375 4.10851562 -8.546875 3.48828125 C-2.57742782 0 -2.57742782 0 0 0 Z " fill="#E09E9C" transform="translate(618,513)"/>
<path d="M0 0 C0.99 0.495 0.99 0.495 2 1 C1.67 1.66 1.34 2.32 1 3 C0.01 3 -0.98 3 -2 3 C-2 82.86 -2 162.72 -2 245 C-6.36222225 243.54592592 -9.09883537 242.52162752 -12.8125 240.1875 C-15.96714533 238.24111674 -19.12435847 236.34415833 -22.375 234.5625 C-27.00839684 232.01948113 -31.55695047 229.33979637 -36.10546875 226.6484375 C-39.02268807 224.98707913 -41.99712349 223.4994283 -45 222 C-46.51102083 221.12288346 -48.01139948 220.22715067 -49.5 219.3125 C-53.56472649 216.8444127 -57.67403792 214.46655826 -61.8125 212.125 C-67.6567321 208.81444073 -73.37677694 205.33705226 -79.0625 201.76171875 C-81.95704065 199.97413057 -81.95704065 199.97413057 -84.9296875 198.5390625 C-88.45648743 196.77117551 -91.76817503 194.75407954 -95.125 192.6875 C-100.70747295 189.28848597 -106.36438325 186.2453397 -112.24609375 183.38671875 C-115.70955133 181.6427082 -118.98995392 179.66832393 -122.29296875 177.640625 C-128.36074677 173.96318377 -134.56535305 170.51087058 -140.73901367 167.01538086 C-144.84689329 164.6819954 -148.89839227 162.26289932 -152.9375 159.8125 C-162.36961944 154.12131963 -171.98879465 148.77310259 -181.625 143.4375 C-187.15108008 140.37561123 -192.6262746 137.22397097 -198.10791016 134.08349609 C-201.3622316 132.21992467 -204.61874068 130.36018252 -207.875 128.5 C-209.05990541 127.82293343 -210.24480216 127.1458517 -211.4296875 126.46875 C-212.27789062 125.9840625 -213.12609375 125.499375 -214 125 C-212.72928894 121.18786683 -211.62724065 120.98822713 -208.125 119.1875 C-207.12855469 118.66542969 -206.13210937 118.14335937 -205.10546875 117.60546875 C-204.08066406 117.07566406 -203.05585938 116.54585938 -202 116 C-195.88423676 112.72641719 -189.85257061 109.3598 -183.921875 105.76171875 C-177.98769275 102.18375592 -172.00022453 98.69525879 -166.02294922 95.18994141 C-164.23188739 94.13640106 -162.44565286 93.07466352 -160.66015625 92.01171875 C-155.86940611 89.17252254 -151.07030027 86.50102415 -146.0625 84.0625 C-138.69018708 80.44919248 -131.36617221 76.3176649 -124.8203125 71.34375 C-122.70264524 69.78049348 -120.46360156 68.92795 -118.0390625 67.9375 C-114.76659841 66.43291881 -111.76455453 64.50221225 -108.6953125 62.625 C-105.86822821 60.92055498 -103.01177725 59.28869911 -100.125 57.6875 C-99.24070312 57.19636719 -98.35640625 56.70523438 -97.4453125 56.19921875 C-95.26837394 55.1316147 -93.36762831 54.46801955 -91 54 C-91 53.34 -91 52.68 -91 52 C-90.19175781 51.61328125 -89.38351562 51.2265625 -88.55078125 50.828125 C-86.94783203 50.04695313 -86.94783203 50.04695313 -85.3125 49.25 C-84.25675781 48.73953125 -83.20101562 48.2290625 -82.11328125 47.703125 C-79.09374341 46.05128247 -76.65707031 44.1711296 -74 42 C-70.40100449 40.29521265 -66.9148564 38.78297128 -63 38 C-63 37.34 -63 36.68 -63 36 C-62.34257812 35.69449219 -61.68515625 35.38898438 -61.0078125 35.07421875 C-52.73061331 31.09263919 -44.9927584 26.43171072 -37.19921875 21.5859375 C-30.49093958 17.42762453 -23.58261798 13.68278393 -16.60546875 10 C-8.8124281 6.17950053 -8.8124281 6.17950053 -2 1 C-1.34 0.67 -0.68 0.34 0 0 Z " fill="#E19E9C" transform="translate(407,388)"/>
<path d="M0 0 C4.12649656 1.37549885 7.0353143 2.41419603 10.65234375 4.50390625 C11.92972412 5.23746338 11.92972412 5.23746338 13.23291016 5.98583984 C14.57168213 6.76628662 14.57168213 6.76628662 15.9375 7.5625 C16.8661084 8.0982666 17.7947168 8.6340332 18.75146484 9.18603516 C24.86146203 12.72218154 30.92564849 16.33051314 36.96313477 19.98876953 C41.24066281 22.57238468 45.58851108 24.98026191 49.9921875 27.33984375 C54.5700228 29.86657103 59.05852628 32.54297272 63.54833984 35.22241211 C68.3642936 38.08335766 73.2502272 40.79070707 78.17480469 43.45996094 C82.76990022 45.96478833 87.3218776 48.54488407 91.875 51.125 C92.87039795 51.68848145 93.8657959 52.25196289 94.89135742 52.83251953 C110.36421648 61.59814367 125.78690173 70.4484268 141.18212891 79.34960938 C149.44458303 84.11993818 157.74732686 88.81542224 166.06298828 93.4921875 C172.1226761 96.91041829 178.11266798 100.42427186 184.05859375 104.03613281 C188.39917108 106.665521 192.81525634 109.11556742 197.28125 111.5234375 C200.434313 113.23587689 203.56722929 114.97844443 206.6875 116.75 C208.20923828 117.60851562 208.20923828 117.60851562 209.76171875 118.484375 C210.50035156 118.98453125 211.23898437 119.4846875 212 120 C212 120.66 212 121.32 212 122 C210.1953125 123.03125 210.1953125 123.03125 208.390625 124.0625 C207.5877002 124.52132568 206.78477539 124.98015137 205.95751953 125.45288086 C204.11478595 126.50584774 202.27201091 127.55874208 200.42919922 128.61157227 C195.01173614 131.7068222 189.59511835 134.80353944 184.1796875 137.90234375 C181.82822662 139.24757355 179.47664209 140.59258701 177.125 141.9375 C176.23734451 142.44521942 176.23734451 142.44521942 175.33175659 142.9631958 C167.17416824 147.62811878 159.00012286 152.26295404 150.8125 156.875 C139.65027271 163.16715397 128.58521985 169.61212037 117.625 176.25 C113.50346352 178.73260335 109.30281309 181.04092412 105.0703125 183.328125 C99.47614766 186.37431145 93.936589 189.51844777 88.39013672 192.65039062 C85.79315622 194.11679595 83.19538446 195.5817947 80.59765625 197.046875 C49.92839635 214.33330784 49.92839635 214.33330784 19.625 232.25 C5.82621951 240.54344512 5.82621951 240.54344512 0 242 C0 162.14 0 82.28 0 0 Z " fill="#395582" transform="translate(405,391)"/>
<path d="M0 0 C0 80.19 0 160.38 0 243 C-3.63 241.02 -7.26 239.04 -11 237 C-12.02456299 236.443125 -13.04912598 235.88625 -14.10473633 235.3125 C-20.32989994 231.92897158 -26.51977193 228.48705474 -32.6875 225 C-33.67298828 224.443125 -34.65847656 223.88625 -35.67382812 223.3125 C-42.81602685 219.26480231 -49.91628091 215.14903547 -57 211 C-68.59691041 204.20773861 -80.28507187 197.58605369 -92 191 C-103.1777085 184.71311376 -114.3460384 178.42427339 -125.37304688 171.87597656 C-132.71909682 167.53576068 -140.17952624 163.40181162 -147.63134766 159.24682617 C-154.80216619 155.24388934 -161.93278476 151.17979752 -169.02978516 147.04760742 C-174.01652659 144.14463057 -179.01984933 141.27284538 -184.03540039 138.41992188 C-191.31613684 134.27633879 -198.59199986 130.12286823 -205.8125 125.875 C-206.44704102 125.50874512 -207.08158203 125.14249023 -207.73535156 124.76513672 C-209.19186758 123.89973654 -210.60233356 122.95754106 -212 122 C-212 121.34 -212 120.68 -212 120 C-211.51982422 119.74009277 -211.03964844 119.48018555 -210.54492188 119.21240234 C-199.34096697 113.13349266 -188.27003866 106.86184941 -177.27929688 100.40576172 C-170.06834199 96.18027051 -162.80338961 92.06338178 -155.5 88 C-147.27794513 83.42438655 -139.11420383 78.76426047 -131 74 C-121.74107896 68.56400928 -112.4071873 63.27776122 -103.02807617 58.05224609 C-94.30456356 53.18698549 -85.65612973 48.20070015 -77.02392578 43.17578125 C-68.03946669 37.95634156 -58.98491154 32.85914409 -49.9375 27.75 C-42.28568438 23.42718845 -34.63569562 19.10123907 -27 14.75 C-26.14035645 14.26015625 -25.28071289 13.7703125 -24.39501953 13.265625 C-18.34890938 9.80605495 -12.36021642 6.25924652 -6.43945312 2.58886719 C-2.21283022 0 -2.21283022 0 0 0 Z " fill="#395582" transform="translate(832,635)"/>
<path d="M0 0 C0 80.19 0 160.38 0 243 C-7.71403965 239.14298018 -15.27492378 235.26537873 -22.75 231 C-23.73097656 230.443125 -24.71195313 229.88625 -25.72265625 229.3125 C-33.85649719 224.68230846 -41.93822216 219.96442177 -50.0144043 215.23461914 C-60.60995565 209.03835513 -71.30084676 203.01499189 -82 197 C-93.1777085 190.71311376 -104.3460384 184.42427339 -115.37304688 177.87597656 C-122.72418313 173.53275557 -130.18995606 169.39626863 -137.64672852 165.23803711 C-144.64875685 161.32898118 -151.61223488 157.362189 -158.54199219 153.32666016 C-164.48971228 149.86573481 -170.46081091 146.44684637 -176.43920898 143.03930664 C-181.21436346 140.31754685 -185.98324216 137.58484051 -190.75292969 134.85351562 C-193.68660089 133.17889669 -196.62722386 131.51736177 -199.5703125 129.859375 C-201.13049352 128.96924968 -202.69041413 128.07866767 -204.25 127.1875 C-204.9527002 126.79747803 -205.65540039 126.40745605 -206.37939453 126.00561523 C-208.265625 124.91796875 -208.265625 124.91796875 -211 123 C-211 122.01 -211 121.02 -211 120 C-210.14341797 119.51926025 -210.14341797 119.51926025 -209.26953125 119.02880859 C-197.16716036 112.22964275 -185.12348335 105.3429498 -173.15112305 98.31738281 C-164.70270615 93.37524759 -156.16629905 88.60014937 -147.61108398 83.84594727 C-141.21564585 80.27948542 -134.96880648 76.56731105 -128.7734375 72.6640625 C-124.89970107 70.33982064 -120.87156981 68.39074493 -116.8125 66.4140625 C-113.38372593 64.69015109 -110.13436512 62.75334323 -106.86328125 60.75 C-96.67203866 54.521246 -86.32041428 48.58151633 -75.86206055 42.81469727 C-70.4736031 39.8368807 -65.13321872 36.78456827 -59.8125 33.6875 C-52.77866163 29.59413214 -45.71389922 25.55976738 -38.625 21.5625 C-30.86396387 17.18583816 -23.11172003 12.79452835 -15.375 8.375 C-14.50439941 7.87814697 -13.63379883 7.38129395 -12.73681641 6.86938477 C-9.46301779 4.99757662 -6.20014205 3.12153328 -2.9765625 1.1640625 C-1 0 -1 0 0 0 Z " fill="#395582" transform="translate(832,146)"/>
<path d="M0 0 C337.92 0 675.84 0 1024 0 C1024 337.92 1024 675.84 1024 1024 C686.08 1024 348.16 1024 0 1024 C0 686.08 0 348.16 0 0 Z M4 4 C4 339.28 4 674.56 4 1020 C339.28 1020 674.56 1020 1020 1020 C1020 684.72 1020 349.44 1020 4 C684.72 4 349.44 4 4 4 Z " fill="#D2CBED" transform="translate(0,0)"/>
<path d="M0 0 C0.99 0.33 1.98 0.66 3 1 C3 79.54 3 158.08 3 239 C3.66 239.33 4.32 239.66 5 240 C2.525 240.99 2.525 240.99 0 242 C0 162.14 0 82.28 0 0 Z " fill="#445C87" transform="translate(405,391)"/>
</svg>
